<?xml version="1.0" encoding="UTF-8"?>
<svg fill="none" viewBox="0 0 512 512" xmlns="http://www.w3.org/2000/svg">
<rect width="512" height="512" rx="52" fill="#1E1E1E"/>
<g filter="url(#a)">
<path d="m111.17 151.5 0.3 9.67c0.033 1.064 0.894 1.916 1.959 1.937l15.223 0.31 15.082 0.306c1.12 0.023 2.04-0.879 2.04-2v-19.791c0-1.105-0.895-2-2-2h-30.898c-1.129 0-2.034 0.934-1.999 2.062l0.293 9.506zm58.264 0.313v9.881c0 1.105 0.896 2 2 2h18.415c1.105 0 2 0.896 2 2v18.512c0 1.104-0.895 2-2 2h-42.075c-1.104 0-2 0.895-2 2v19.762c0 1.104 0.896 2 2 2h54.528c1.105 0 2 0.895 2 2v18.511c0 1.105 0.896 2 2 2h7.208c1.104 0 2 0.896 2 2v19.762c0 1.105-0.896 2-2 2h-42.076c-1.104 0-2 0.896-2 2v18.512c0 1.104 0.896 2 2 2h169.09c1.104 0 2 0.895 2 2v19.762c0 1.104-0.896 2-2 2h-169.09c-1.104 0-2 0.895-2 2v18.511c0 1.105 0.896 2 2 2h18.415c1.105 0 2 0.896 2 2v19.762c0 1.105 0.896 2 2 2h8.453c1.105 0 2 0.896 2 2v18.512c0 1.104 0.896 2 2 2h226.38c1.105 0 2-0.896 2-2v-134.82c0-1.104-0.895-2-2-2h-134.23c-1.104 0-2-0.895-2-2v-18.499c0-1.101 0.89-1.995 1.991-2l66.811-0.315 66.83-0.313c1.093-5e-3 1.98-0.888 1.99-1.981l0.313-32.734 0.312-32.686c0.01-1.112-0.888-2.019-2-2.019h-261.26c-1.104 0-2 0.895-2 2v9.881zm-92.15 46.302v9.879c0 1.116 0.9137 2.016 2.0299 2l20.696-0.31 20.817-0.313c1.068-0.016 1.936-0.869 1.969-1.938l0.299-9.659 0.294-9.507c0.035-1.128-0.87-2.061-1.999-2.061h-42.106c-1.1046 0-2 0.895-2 2v9.909zm22.415 46.245v9.881c0 1.105 0.8951 2 2.0001 2h42.075c1.105 0 2-0.895 2-2v-19.762c0-1.104-0.895-2-2-2h-42.075c-1.105 0-2.0001 0.896-2.0001 2v9.881zm12.717 92.235 0.299 9.669c0.033 1.064 0.894 1.916 1.959 1.938l30.305 0.615c1.12 0.023 2.04-0.879 2.04-2v-19.791c0-1.104-0.895-2-2-2h-30.898c-1.129 0-2.034 0.934-1.999 2.062l0.294 9.507zm45.811 23.449v9.256c0 1.104 0.895 2 2 2h19.66c1.105 0 2-0.896 2-2v-18.512c0-1.104-0.895-2-2-2h-19.66c-1.105 0-2 0.896-2 2v9.256z" clip-rule="evenodd" fill="#2F49D1" fill-rule="evenodd"/>
</g>
<defs>
<filter id="a" x="76.283" y="139.94" width="358.42" height="232.37" color-interpolation-filters="sRGB" filterUnits="userSpaceOnUse">
<feFlood flood-opacity="0" result="BackgroundImageFix"/>
<feBlend in="SourceGraphic" in2="BackgroundImageFix" result="shape"/>
<feColorMatrix in="SourceAlpha" result="hardAlpha" values="0 0 0 0 0 0 0 0 0 0 0 0 0 0 0 0 0 0 127 0"/>
<feOffset dx="-5" dy="5"/>
<feGaussianBlur stdDeviation="0.5"/>
<feComposite in2="hardAlpha" k2="-1" k3="1" operator="arithmetic"/>
<feColorMatrix values="0 0 0 0 0 0 0 0 0 0 0 0 0 0 0 0 0 0 0.15 0"/>
<feBlend in2="shape" result="effect1_innerShadow_431_5476"/>
</filter>
</defs>
</svg>
